<?xml version="1.0" encoding="UTF-8"?>
<svg width="50px" height="60px" viewBox="0 0 50 60" version="1.1" xmlns="http://www.w3.org/2000/svg" xmlns:xlink="http://www.w3.org/1999/xlink">
    <!-- Generator: Sketch 46.2 (44496) - http://www.bohemiancoding.com/sketch -->
    <title>map-pin</title>
    <desc>Created with Sketch.</desc>
    <defs>
        <linearGradient x1="0.267059949%" y1="0.267059949%" x2="100%" y2="100%" id="linearGradient-1">
            <stop stop-color="#514CE3" offset="0%"></stop>
            <stop stop-color="#4CC8F6" offset="100%"></stop>
        </linearGradient>
    </defs>
    <g id="website-design" stroke="none" stroke-width="1" fill="none" fill-rule="evenodd">
        <g id="Contact-panel" transform="translate(-1066.000000, -437.000000)" fill="url(#linearGradient-1)">
            <g id="map-pin" transform="translate(1066.000000, 437.000000)">
                <path d="M25,60 C8.33333333,45.8714125 0,34.2047458 0,25 C0,11.1928813 11.1928813,0 25,0 C38.8071187,0 50,11.1928813 50,25 C50,34.2047458 41.6666667,45.8714125 25,60 Z M25,36 C31.627417,36 37,30.627417 37,24 C37,17.372583 31.627417,12 25,12 C18.372583,12 13,17.372583 13,24 C13,30.627417 18.372583,36 25,36 Z"></path>
            </g>
        </g>
    </g>
</svg>